<svg xmlns="http://www.w3.org/2000/svg" width="61" height="64" viewBox="0 0 61 64" fill="none"><path d="M39.3883 13.1429C39.3883 14.4526 40.4443 15.52 41.7426 15.52H54.8169V13.6457C54.8169 12.48 54.3597 11.36 53.514 10.5143L44.3483 1.3486C43.5254 0.525746 42.4054 0.0686035 41.2397 0.0686035H39.3883V13.1429Z" fill="#003A3C"></path><path d="M51.0607 63.8191C59.9864 60.5437 60.9533 50.7837 61.0058 47.2934C61.0173 46.5323 60.5944 45.8397 59.9133 45.4991L51.2504 41.1471C50.6904 40.866 50.0321 40.866 49.4744 41.1471L40.8115 45.4991C40.1304 45.842 39.7075 46.5323 39.719 47.2934C39.7715 50.7837 40.7361 60.5437 49.6641 63.8191C50.103 63.9814 50.6195 63.9814 51.0607 63.8191Z" fill="#003A3C"></path><path d="M41.7409 19.6366C38.1729 19.6366 35.2723 16.7246 35.2723 13.1429V0.0686035H7.61514C3.958 0.0686035 0.986572 3.01717 0.986572 6.67432V55.2229C0.986572 58.88 3.958 61.8515 7.61514 61.8515H40.2323C36.1637 56.5646 35.6426 49.9017 35.6037 47.3577C35.5694 45.0012 36.8563 42.88 38.9637 41.8217L47.6243 37.472C48.4677 37.0469 49.414 36.8229 50.3603 36.8229C51.3066 36.8229 52.2529 37.0492 53.0986 37.472L54.8151 38.3337V19.6366H41.7409ZM12.8791 16.0549H16.6163V12.32C16.6163 11.184 17.5374 10.2629 18.6734 10.2629C19.8094 10.2629 20.7306 11.184 20.7306 12.32V16.0572H24.4654C25.6014 16.0572 26.5226 16.9783 26.5226 18.1143C26.5226 19.2503 25.6014 20.1715 24.4654 20.1715H20.7306V23.9063C20.7306 25.0423 19.8094 25.9635 18.6734 25.9635C17.5374 25.9635 16.6163 25.0423 16.6163 23.9063V20.1715H12.8791C11.7431 20.1715 10.822 19.2503 10.822 18.1143C10.822 16.9783 11.7431 16.0549 12.8791 16.0549ZM28.8654 45.8857H12.8791C11.7431 45.8857 10.822 44.9646 10.822 43.8286C10.822 42.6926 11.7431 41.7715 12.8791 41.7715H28.8654C30.0014 41.7715 30.9226 42.6926 30.9226 43.8286C30.9226 44.9646 30.0014 45.8857 28.8654 45.8857ZM42.9294 36.1715H12.8791C11.7431 36.1715 10.822 35.2503 10.822 34.1143C10.822 32.9783 11.7431 32.0572 12.8791 32.0572H42.9294C44.0654 32.0572 44.9866 32.9783 44.9866 34.1143C44.9866 35.2503 44.0654 36.1715 42.9294 36.1715Z" fill="#003A3C"></path></svg>