<svg xmlns="http://www.w3.org/2000/svg" width="28" height="27" viewBox="0 0 28 27" fill="none"><path d="M14.1765 2.307C14.4076 2.307 14.5954 2.37923 14.7398 2.52367C14.8843 2.66812 14.9565 2.85589 14.9565 3.08701V22.2403L20.0698 17.127C20.2432 16.9537 20.4454 16.867 20.6765 16.867C20.9076 16.867 21.0954 16.9537 21.2398 17.127C21.3843 17.3003 21.4565 17.5026 21.4565 17.7337C21.4565 17.9648 21.3987 18.167 21.2832 18.3403L14.7832 24.8403C14.6098 24.9559 14.4076 25.0137 14.1765 25.0137C13.9454 25.0137 13.7432 24.9559 13.5698 24.8403L7.06982 18.3403C6.95426 18.167 6.89648 17.9648 6.89648 17.7337C6.89648 17.5026 6.96871 17.3003 7.11315 17.127C7.2576 16.9537 7.44537 16.867 7.67648 16.867C7.9076 16.867 8.10982 16.9537 8.28315 17.127L13.3965 22.2403V3.08701C13.3965 2.85589 13.4687 2.66812 13.6132 2.52367C13.7576 2.37923 13.9454 2.307 14.1765 2.307Z" fill="white"></path></svg>