<svg width="18" height="19" viewBox="0 0 18 19" fill="none" xmlns="http://www.w3.org/2000/svg">
<path d="M15.75 8.93972C15.7489 9.08542 15.6912 9.22499 15.5891 9.32897L15.5858 9.33572L12.2108 12.7107C12.1047 12.8132 11.9626 12.8699 11.8151 12.8686C11.6676 12.8673 11.5265 12.8082 11.4222 12.7039C11.3179 12.5996 11.2588 12.4585 11.2575 12.311C11.2562 12.1635 11.3129 12.0214 11.4154 11.9153L13.8296 9.49997H2.8125C2.66332 9.49997 2.52024 9.44071 2.41475 9.33522C2.30926 9.22973 2.25 9.08666 2.25 8.93747C2.25 8.78829 2.30926 8.64521 2.41475 8.53972C2.52024 8.43424 2.66332 8.37497 2.8125 8.37497H13.8296L11.4154 5.96072C11.3129 5.85463 11.2562 5.71254 11.2575 5.56506C11.2588 5.41757 11.3179 5.27649 11.4222 5.1722C11.5265 5.06791 11.6676 5.00875 11.8151 5.00747C11.9626 5.00619 12.1047 5.06288 12.2108 5.16535L15.5858 8.54035L15.5891 8.54597C15.6392 8.59671 15.6789 8.6567 15.7061 8.7226C15.7351 8.79053 15.75 8.86362 15.75 8.93747V8.93972Z" fill="white"/>
</svg>
