<svg xmlns="http://www.w3.org/2000/svg" width="1903" height="395" viewBox="0 0 1903 395" fill="none"><path d="M969.5 38.5C1285.49 38.5 1570.12 75.2983 1774.53 133.954C1876.99 163.357 1957.11 197.64 2010.74 234.02C2065.67 271.288 2084.5 304.759 2084.5 331C2084.5 357.241 2065.67 390.712 2010.74 427.98C1957.11 464.36 1876.99 498.643 1774.53 528.046C1570.12 586.702 1285.49 623.5 969.5 623.5C653.514 623.5 368.881 586.702 164.472 528.046C62.0065 498.643 -18.1147 464.36 -71.7373 427.98C-126.671 390.712 -145.5 357.241 -145.5 331C-145.5 304.759 -126.671 271.288 -71.7373 234.02C-18.1147 197.64 62.0065 163.357 164.472 133.954C368.881 75.2983 653.514 38.5 969.5 38.5Z" fill="white" stroke="url(#paint0_linear_1907_347)" stroke-width="77"></path><defs><linearGradient id="paint0_linear_1907_347" x1="-184" y1="331" x2="2123" y2="331" gradientUnits="userSpaceOnUse"><stop stop-color="#F2A622"></stop><stop offset="1" stop-color="#EE7600"></stop></linearGradient></defs></svg>